<svg data-v-423bf9ae="" xmlns="http://www.w3.org/2000/svg" viewBox="0 0 543 90" class="iconLeft"><!----><!----><!----><g data-v-423bf9ae="" id="ee105596-a10a-4786-b6d6-cbb833ad4cfa" fill="white" transform="matrix(4.418261864764637,0,0,4.418261864764637,171.6669022991991,-3.5567004198063827)"><path d="M13.17 5.28L13.17 5.28Q13.83 5.28 14.25 5.24L14.25 5.24L14.25 5.52L14.25 5.52Q13.43 5.92 12.95 7.48L12.95 7.48L10.60 15.15L10.60 15.15Q10.15 15.12 9.86 15.12L9.86 15.12L9.86 15.12Q9.58 15.12 9.13 15.15L9.13 15.15L7.31 9.59L5.33 15.15L5.33 15.15Q4.89 15.12 4.59 15.12L4.59 15.12L4.59 15.12Q4.31 15.12 3.86 15.15L3.86 15.15L0.62 6.41L0.62 6.41Q0.45 5.96 0.22 5.75L0.22 5.75L0.22 5.75Q0 5.53-0.21 5.52L-0.21 5.52L-0.21 5.24L-0.21 5.24Q0.80 5.28 2.27 5.28L2.27 5.28L2.27 5.28Q3.54 5.28 4.13 5.24L4.13 5.24L4.13 5.52L4.13 5.52Q3.75 5.59 3.75 6.08L3.75 6.08L3.75 6.08Q3.75 6.37 3.88 6.69L3.88 6.69L5.91 12.40L7.14 9.07L6.19 6.17L6.19 6.17Q6.08 5.82 5.91 5.68L5.91 5.68L5.91 5.68Q5.74 5.54 5.47 5.52L5.47 5.52L5.47 5.24L5.47 5.24Q6.41 5.28 7.90 5.28L7.90 5.28L7.90 5.28Q9.35 5.28 10.07 5.24L10.07 5.24L10.07 5.52L10.07 5.52Q9.56 5.53 9.34 5.64L9.34 5.64L9.34 5.64Q9.11 5.75 9.11 6.05L9.11 6.05L9.11 6.05Q9.11 6.31 9.25 6.69L9.25 6.69L11.10 12.31L12.18 8.85L12.18 8.85Q12.56 7.60 12.56 6.89L12.56 6.89L12.56 6.89Q12.56 6.19 12.24 5.87L12.24 5.87L12.24 5.87Q11.93 5.54 11.34 5.52L11.34 5.52L11.34 5.24L11.34 5.24Q12.39 5.28 13.17 5.28L13.17 5.28ZM19.54 7.69L19.54 7.69Q20.23 7.69 20.53 8.11L20.53 8.11L20.53 8.11Q20.83 8.53 20.83 9.10L20.83 9.10L20.83 9.10Q20.83 9.73 20.48 10.10L20.48 10.10L20.48 10.10Q20.12 10.47 19.54 10.47L19.54 10.47L19.54 10.47Q18.94 10.47 18.62 10.20L18.62 10.20L18.62 10.20Q18.30 9.93 18.30 9.46L18.30 9.46L18.30 9.46Q18.30 8.64 19.01 8.16L19.01 8.16L19.01 8.16Q18.76 8.16 18.56 8.26L18.56 8.26L18.56 8.26Q18.21 8.41 17.98 8.76L17.98 8.76L17.98 8.76Q17.74 9.10 17.74 9.51L17.74 9.51L17.74 13.71L17.74 13.71Q17.74 14.36 18.01 14.61L18.01 14.61L18.01 14.61Q18.28 14.85 18.94 14.85L18.94 14.85L18.94 15.15L18.94 15.15Q18.76 15.15 18.63 15.13L18.63 15.13L18.63 15.13Q17.16 15.09 16.67 15.09L16.67 15.09L16.67 15.09Q16.24 15.09 14.73 15.13L14.73 15.13L14.73 15.13Q14.62 15.15 14.43 15.15L14.43 15.15L14.43 14.85L14.43 14.85Q14.87 14.85 15.04 14.64L15.04 14.64L15.04 14.64Q15.22 14.42 15.22 13.85L15.22 13.85L15.22 9.41L15.22 9.41Q15.22 8.76 15.04 8.47L15.04 8.47L15.04 8.47Q14.87 8.18 14.43 8.18L14.43 8.18L14.43 7.88L14.43 7.88Q14.88 7.92 15.30 7.92L15.30 7.92L15.30 7.92Q16.76 7.92 17.74 7.73L17.74 7.73L17.74 8.74L17.74 8.74Q18.27 7.69 19.54 7.69L19.54 7.69ZM23.13 4.20L23.13 4.20Q23.86 4.20 24.26 4.51L24.26 4.51L24.26 4.51Q24.65 4.82 24.65 5.40L24.65 5.40L24.65 5.40Q24.65 5.99 24.26 6.30L24.26 6.30L24.26 6.30Q23.86 6.61 23.13 6.61L23.13 6.61L23.13 6.61Q22.39 6.61 21.99 6.30L21.99 6.30L21.99 6.30Q21.60 5.99 21.60 5.40L21.60 5.40L21.60 5.40Q21.60 4.82 21.99 4.51L21.99 4.51L21.99 4.51Q22.39 4.20 23.13 4.20L23.13 4.20ZM24.47 7.73L24.47 13.85L24.47 13.85Q24.47 14.42 24.65 14.64L24.65 14.64L24.65 14.64Q24.82 14.85 25.26 14.85L25.26 14.85L25.26 15.15L25.26 15.15Q23.74 15.09 23.27 15.09L23.27 15.09L23.27 15.09Q22.79 15.09 21.17 15.15L21.17 15.15L21.17 14.85L21.17 14.85Q21.60 14.85 21.78 14.64L21.78 14.64L21.78 14.64Q21.95 14.42 21.95 13.85L21.95 13.85L21.95 9.41L21.95 9.41Q21.95 8.76 21.78 8.47L21.78 8.47L21.78 8.47Q21.60 8.18 21.17 8.18L21.17 8.18L21.17 7.88L21.17 7.88Q21.62 7.92 22.04 7.92L22.04 7.92L22.04 7.92Q23.49 7.92 24.47 7.73L24.47 7.73ZM29.02 5.61L29.02 7.88L30.39 7.88L30.39 8.16L29.02 8.16L29.02 13.97L29.02 13.97Q29.02 14.25 29.12 14.36L29.12 14.36L29.12 14.36Q29.22 14.48 29.44 14.48L29.44 14.48L29.44 14.48Q29.61 14.48 29.82 14.38L29.82 14.38L29.82 14.38Q30.03 14.28 30.20 14.07L30.20 14.07L30.41 14.24L30.41 14.24Q29.76 15.34 28.42 15.34L28.42 15.34L28.42 15.34Q27.45 15.34 26.98 14.87L26.98 14.87L26.98 14.87Q26.68 14.57 26.59 14.14L26.59 14.14L26.59 14.14Q26.50 13.71 26.50 12.92L26.50 12.92L26.50 8.16L25.44 8.16L25.44 7.88L26.50 7.88L26.50 6.23L26.50 6.23Q27.26 6.23 27.87 6.08L27.87 6.08L27.87 6.08Q28.48 5.94 29.02 5.61L29.02 5.61ZM35.06 13.82L35.06 13.82Q36.08 13.82 36.75 12.88L36.75 12.88L36.99 12.96L36.99 12.96Q36.68 13.94 35.95 14.64L35.95 14.64L35.95 14.64Q35.21 15.34 34.06 15.34L34.06 15.34L34.06 15.34Q32.59 15.34 31.71 14.43L31.71 14.43L31.71 14.43Q30.83 13.52 30.83 11.52L30.83 11.52L30.83 11.52Q30.83 9.60 31.82 8.64L31.82 8.64L31.82 8.64Q32.80 7.69 34.43 7.69L34.43 7.69L34.43 7.69Q37.07 7.69 37.07 10.82L37.07 10.82L33.46 10.82L33.46 10.82Q33.45 10.99 33.45 11.33L33.45 11.33L33.45 11.33Q33.45 12.67 33.92 13.24L33.92 13.24L33.92 13.24Q34.38 13.82 35.06 13.82L35.06 13.82ZM34.33 8.01L34.33 8.01Q33.54 8.01 33.40 10.56L33.40 10.56L35.03 10.56L35.03 10.56Q35.04 9.44 34.87 8.72L34.87 8.72L34.87 8.72Q34.69 8.01 34.33 8.01L34.33 8.01ZM48.96 12.80L48.96 12.80Q48.96 14.22 49.06 15.15L49.06 15.15L49.06 15.15Q48.10 15.11 45.85 15.11L45.85 15.11L45.85 15.11Q42.57 15.11 40.95 15.15L40.95 15.15L40.95 14.87L40.95 14.87Q41.40 14.84 41.60 14.76L41.60 14.76L41.60 14.76Q41.80 14.67 41.87 14.43L41.87 14.43L41.87 14.43Q41.94 14.20 41.94 13.66L41.94 13.66L41.94 6.72L41.94 6.72Q41.94 6.19 41.87 5.95L41.87 5.95L41.87 5.95Q41.79 5.71 41.59 5.63L41.59 5.63L41.59 5.63Q41.40 5.54 40.95 5.52L40.95 5.52L40.95 5.24L40.95 5.24Q42.57 5.28 45.85 5.28L45.85 5.28L45.85 5.28Q47.91 5.28 48.78 5.24L48.78 5.24L48.78 5.24Q48.68 6.55 48.68 7.59L48.68 7.59L48.68 7.59Q48.68 8.23 48.72 8.60L48.72 8.60L48.40 8.60L48.40 8.60Q48.15 6.97 47.46 6.26L47.46 6.26L47.46 6.26Q46.77 5.56 45.82 5.56L45.82 5.56L45.64 5.56L45.64 5.56Q45.26 5.56 45.09 5.62L45.09 5.62L45.09 5.62Q44.91 5.68 44.85 5.86L44.85 5.86L44.85 5.86Q44.79 6.03 44.79 6.44L44.79 6.44L44.79 10.02L44.93 10.02L44.93 10.02Q45.65 10.02 46.17 9.45L46.17 9.45L46.17 9.45Q46.69 8.88 46.83 8.18L46.83 8.18L47.15 8.18L47.15 8.18Q47.11 8.76 47.11 9.49L47.11 9.49L47.11 10.16L47.11 10.16Q47.11 10.88 47.19 12.15L47.19 12.15L46.87 12.15L46.87 12.15Q46.75 11.35 46.22 10.83L46.22 10.83L46.22 10.83Q45.70 10.30 44.93 10.30L44.93 10.30L44.79 10.30L44.79 13.94L44.79 13.94Q44.79 14.35 44.85 14.53L44.85 14.53L44.85 14.53Q44.91 14.70 45.09 14.76L45.09 14.76L45.09 14.76Q45.26 14.83 45.64 14.83L45.64 14.83L46.10 14.83L46.10 14.83Q46.91 14.83 47.64 14.04L47.64 14.04L47.64 14.04Q48.37 13.24 48.68 11.51L48.68 11.51L49.00 11.51L49.00 11.51Q48.96 12.01 48.96 12.80L48.96 12.80ZM52.89 7.69L52.89 7.69Q53.44 7.69 53.92 7.80L53.92 7.80L53.92 7.80Q54.40 7.92 54.66 8.06L54.66 8.06L54.66 8.06Q54.81 8.15 54.91 8.15L54.91 8.15L54.91 8.15Q55.20 8.15 55.26 7.70L55.26 7.70L55.54 7.70L55.54 7.70Q55.48 8.43 55.48 10.22L55.48 10.22L55.20 10.22L55.20 10.22Q55.09 9.30 54.68 8.66L54.68 8.66L54.68 8.66Q54.26 8.02 53.48 8.02L53.48 8.02L53.48 8.02Q53.13 8.02 52.89 8.23L52.89 8.23L52.89 8.23Q52.65 8.44 52.65 8.81L52.65 8.81L52.65 8.81Q52.65 9.27 52.96 9.63L52.96 9.63L52.96 9.63Q53.27 9.98 53.93 10.50L53.93 10.50L53.93 10.50Q53.96 10.51 54.33 10.82L54.33 10.82L54.33 10.82Q55.12 11.47 55.48 11.96L55.48 11.96L55.48 11.96Q55.85 12.46 55.85 13.19L55.85 13.19L55.85 13.19Q55.85 13.80 55.47 14.30L55.47 14.30L55.47 14.30Q55.09 14.80 54.44 15.07L54.44 15.07L54.44 15.07Q53.79 15.34 53.02 15.34L53.02 15.34L53.02 15.34Q52.14 15.34 51.58 14.99L51.58 14.99L51.58 14.99Q51.34 14.87 51.18 14.81L51.18 14.81L51.18 14.81Q51.03 14.76 50.88 14.76L50.88 14.76L50.88 14.76Q50.61 14.76 50.48 15.25L50.48 15.25L50.20 15.25L50.20 15.25Q50.26 14.45 50.26 12.45L50.26 12.45L50.54 12.45L50.54 12.45Q50.67 13.59 51.16 14.29L51.16 14.29L51.16 14.29Q51.65 14.99 52.39 14.99L52.39 14.99L52.39 14.99Q52.74 14.99 52.97 14.80L52.97 14.80L52.97 14.80Q53.20 14.60 53.20 14.22L53.20 14.22L53.20 14.22Q53.20 13.83 53.04 13.52L53.04 13.52L53.04 13.52Q52.88 13.22 52.65 12.97L52.65 12.97L52.65 12.97Q52.42 12.73 51.90 12.26L51.90 12.26L51.90 12.26Q51.31 11.72 51.00 11.40L51.00 11.40L51.00 11.40Q50.69 11.07 50.48 10.65L50.48 10.65L50.48 10.65Q50.26 10.22 50.26 9.70L50.26 9.70L50.26 9.70Q50.26 9.10 50.62 8.64L50.62 8.64L50.62 8.64Q50.99 8.18 51.59 7.93L51.59 7.93L51.59 7.93Q52.19 7.69 52.89 7.69L52.89 7.69ZM59.50 7.69L59.50 7.69Q60.05 7.69 60.53 7.80L60.53 7.80L60.53 7.80Q61.01 7.92 61.26 8.06L61.26 8.06L61.26 8.06Q61.42 8.15 61.52 8.15L61.52 8.15L61.52 8.15Q61.81 8.15 61.87 7.70L61.87 7.70L62.15 7.70L62.15 7.70Q62.09 8.43 62.09 10.22L62.09 10.22L61.81 10.22L61.81 10.22Q61.70 9.30 61.29 8.66L61.29 8.66L61.29 8.66Q60.87 8.02 60.09 8.02L60.09 8.02L60.09 8.02Q59.74 8.02 59.50 8.23L59.50 8.23L59.50 8.23Q59.26 8.44 59.26 8.81L59.26 8.81L59.26 8.81Q59.26 9.27 59.57 9.63L59.57 9.63L59.57 9.63Q59.88 9.98 60.54 10.50L60.54 10.50L60.54 10.50Q60.56 10.51 60.94 10.82L60.94 10.82L60.94 10.82Q61.73 11.47 62.09 11.96L62.09 11.96L62.09 11.96Q62.45 12.46 62.45 13.19L62.45 13.19L62.45 13.19Q62.45 13.80 62.08 14.30L62.08 14.30L62.08 14.30Q61.70 14.80 61.05 15.07L61.05 15.07L61.05 15.07Q60.40 15.34 59.63 15.34L59.63 15.34L59.63 15.34Q58.74 15.34 58.18 14.99L58.18 14.99L58.18 14.99Q57.95 14.87 57.79 14.81L57.79 14.81L57.79 14.81Q57.64 14.76 57.48 14.76L57.48 14.76L57.48 14.76Q57.22 14.76 57.09 15.25L57.09 15.25L56.81 15.25L56.81 15.25Q56.87 14.45 56.87 12.45L56.87 12.45L57.15 12.45L57.15 12.45Q57.27 13.59 57.76 14.29L57.76 14.29L57.76 14.29Q58.25 14.99 59.00 14.99L59.00 14.99L59.00 14.99Q59.35 14.99 59.58 14.80L59.58 14.80L59.58 14.80Q59.81 14.60 59.81 14.22L59.81 14.22L59.81 14.22Q59.81 13.83 59.65 13.52L59.65 13.52L59.65 13.52Q59.49 13.22 59.26 12.97L59.26 12.97L59.26 12.97Q59.02 12.73 58.51 12.26L58.51 12.26L58.51 12.26Q57.92 11.72 57.61 11.40L57.61 11.40L57.61 11.40Q57.30 11.07 57.09 10.65L57.09 10.65L57.09 10.65Q56.87 10.22 56.87 9.70L56.87 9.70L56.87 9.70Q56.87 9.10 57.23 8.64L57.23 8.64L57.23 8.64Q57.60 8.18 58.20 7.93L58.20 7.93L58.20 7.93Q58.80 7.69 59.50 7.69L59.50 7.69ZM64.99 15.25L64.99 15.25Q64.09 15.25 63.64 14.76L63.64 14.76L63.64 14.76Q63.18 14.28 63.18 13.55L63.18 13.55L63.18 13.55Q63.18 12.92 63.51 12.51L63.51 12.51L63.51 12.51Q63.84 12.10 64.29 11.87L64.29 11.87L64.29 11.87Q64.74 11.65 65.45 11.41L65.45 11.41L65.45 11.41Q66.21 11.16 66.56 10.95L66.56 10.95L66.56 10.95Q66.91 10.74 66.91 10.36L66.91 10.36L66.91 9.11L66.91 9.11Q66.91 8.67 66.68 8.32L66.68 8.32L66.68 8.32Q66.46 7.97 65.91 7.97L65.91 7.97L65.91 7.97Q65.48 7.97 65.13 8.20L65.13 8.20L65.13 8.20Q65.60 8.37 65.84 8.70L65.84 8.70L65.84 8.70Q66.07 9.03 66.07 9.44L66.07 9.44L66.07 9.44Q66.07 9.98 65.68 10.31L65.68 10.31L65.68 10.31Q65.30 10.64 64.75 10.64L64.75 10.64L64.75 10.64Q64.20 10.64 63.89 10.30L63.89 10.30L63.89 10.30Q63.57 9.95 63.57 9.42L63.57 9.42L63.57 9.42Q63.57 9.00 63.78 8.69L63.78 8.69L63.78 8.69Q63.99 8.39 64.44 8.13L64.44 8.13L64.44 8.13Q65.23 7.69 66.68 7.69L66.68 7.69L66.68 7.69Q67.45 7.69 68.01 7.83L68.01 7.83L68.01 7.83Q68.57 7.98 68.96 8.39L68.96 8.39L68.96 8.39Q69.24 8.68 69.34 9.12L69.34 9.12L69.34 9.12Q69.43 9.56 69.43 10.35L69.43 10.35L69.43 14.10L69.43 14.10Q69.43 14.45 69.48 14.57L69.48 14.57L69.48 14.57Q69.52 14.70 69.65 14.70L69.65 14.70L69.65 14.70Q69.75 14.70 69.86 14.64L69.86 14.64L69.86 14.64Q69.97 14.57 70.07 14.49L70.07 14.49L70.21 14.73L70.21 14.73Q69.61 15.25 68.49 15.25L68.49 15.25L68.49 15.25Q67.65 15.25 67.31 14.96L67.31 14.96L67.31 14.96Q66.98 14.67 66.95 14.18L66.95 14.18L66.95 14.18Q66.29 15.25 64.99 15.25L64.99 15.25ZM66.39 14.13L66.39 14.13Q66.68 14.13 66.91 13.89L66.91 13.89L66.91 10.93L66.91 10.93Q66.78 11.14 66.44 11.48L66.44 11.48L66.44 11.48Q66.07 11.84 65.87 12.19L65.87 12.19L65.87 12.19Q65.67 12.53 65.67 13.12L65.67 13.12L65.67 13.12Q65.67 14.13 66.39 14.13L66.39 14.13ZM76.58 7.94L76.58 7.94Q77.38 7.94 77.66 7.88L77.66 7.88L77.66 8.18L77.66 8.18Q77.36 8.27 77.12 8.58L77.12 8.58L77.12 8.58Q76.87 8.89 76.66 9.53L76.66 9.53L74.91 14.74L74.33 16.44L74.33 16.44Q74.07 17.16 73.71 17.44L73.71 17.44L73.71 17.44Q73.28 17.78 72.41 17.78L72.41 17.78L72.41 17.78Q71.71 17.78 71.11 17.45L71.11 17.45L71.11 17.45Q70.50 17.12 70.50 16.46L70.50 16.46L70.50 16.46Q70.50 15.97 70.88 15.68L70.88 15.68L70.88 15.68Q71.26 15.39 71.88 15.39L71.88 15.39L71.88 15.39Q72.46 15.39 72.80 15.65L72.80 15.65L72.80 15.65Q73.14 15.92 73.14 16.42L73.14 16.42L73.14 16.42Q73.14 16.76 72.91 17.06L72.91 17.06L72.91 17.06Q72.67 17.36 72.23 17.50L72.23 17.50L72.23 17.50Q72.37 17.53 72.70 17.53L72.70 17.53L72.70 17.53Q73.67 17.53 74.03 16.41L74.03 16.41L74.10 16.17L70.84 8.96L70.84 8.96Q70.63 8.48 70.43 8.33L70.43 8.33L70.43 8.33Q70.22 8.18 70.03 8.18L70.03 8.18L70.03 7.88L70.03 7.88Q71.15 7.97 72.31 7.97L72.31 7.97L72.31 7.97Q73.22 7.97 74.34 7.88L74.34 7.88L74.34 8.18L74.34 8.18Q73.93 8.18 73.72 8.23L73.72 8.23L73.72 8.23Q73.50 8.29 73.50 8.48L73.50 8.48L73.50 8.48Q73.50 8.60 73.56 8.71L73.56 8.71L75.28 12.81L75.87 11.02L75.87 11.02Q76.13 10.21 76.13 9.59L76.13 9.59L76.13 9.59Q76.13 8.93 75.85 8.57L75.85 8.57L75.85 8.57Q75.57 8.20 75.11 8.18L75.11 8.18L75.11 7.88L75.11 7.88Q75.63 7.94 76.58 7.94L76.58 7.94ZM80.95 7.69L80.95 7.69Q81.49 7.69 81.98 7.80L81.98 7.80L81.98 7.80Q82.46 7.92 82.71 8.06L82.71 8.06L82.71 8.06Q82.87 8.15 82.96 8.15L82.96 8.15L82.96 8.15Q83.26 8.15 83.31 7.70L83.31 7.70L83.59 7.70L83.59 7.70Q83.54 8.43 83.54 10.22L83.54 10.22L83.26 10.22L83.26 10.22Q83.15 9.30 82.73 8.66L82.73 8.66L82.73 8.66Q82.32 8.02 81.54 8.02L81.54 8.02L81.54 8.02Q81.19 8.02 80.95 8.23L80.95 8.23L80.95 8.23Q80.71 8.44 80.71 8.81L80.71 8.81L80.71 8.81Q80.71 9.27 81.02 9.63L81.02 9.63L81.02 9.63Q81.33 9.98 81.98 10.50L81.98 10.50L81.98 10.50Q82.01 10.51 82.39 10.82L82.39 10.82L82.39 10.82Q83.17 11.47 83.54 11.96L83.54 11.96L83.54 11.96Q83.90 12.46 83.90 13.19L83.90 13.19L83.90 13.19Q83.90 13.80 83.52 14.30L83.52 14.30L83.52 14.30Q83.15 14.80 82.50 15.07L82.50 15.07L82.50 15.07Q81.84 15.34 81.07 15.34L81.07 15.34L81.07 15.34Q80.19 15.34 79.63 14.99L79.63 14.99L79.63 14.99Q79.39 14.87 79.24 14.81L79.24 14.81L79.24 14.81Q79.09 14.76 78.93 14.76L78.93 14.76L78.93 14.76Q78.67 14.76 78.54 15.25L78.54 15.25L78.26 15.25L78.26 15.25Q78.32 14.45 78.32 12.45L78.32 12.45L78.60 12.45L78.60 12.45Q78.72 13.59 79.21 14.29L79.21 14.29L79.21 14.29Q79.70 14.99 80.44 14.99L80.44 14.99L80.44 14.99Q80.79 14.99 81.03 14.80L81.03 14.80L81.03 14.80Q81.26 14.60 81.26 14.22L81.26 14.22L81.26 14.22Q81.26 13.83 81.10 13.52L81.10 13.52L81.10 13.52Q80.93 13.22 80.70 12.97L80.70 12.97L80.70 12.97Q80.47 12.73 79.95 12.26L79.95 12.26L79.95 12.26Q79.37 11.72 79.06 11.40L79.06 11.40L79.06 11.40Q78.75 11.07 78.53 10.65L78.53 10.65L78.53 10.65Q78.32 10.22 78.32 9.70L78.32 9.70L78.32 9.70Q78.32 9.10 78.68 8.64L78.68 8.64L78.68 8.64Q79.04 8.18 79.65 7.93L79.65 7.93L79.65 7.93Q80.25 7.69 80.95 7.69L80.95 7.69Z"></path></g><!----><g data-v-423bf9ae="" id="cdde05ff-264d-47d9-b37b-61d6c20b0f02" transform="matrix(1.876012335122067,0,0,1.876012335122067,-17.71549292094774,-41.87409041665738)" stroke="none" fill="white"><path d="M83.999 39.287c-4.099-.151-5.581 2.286-5.643 2.39-.011.019-.018.04-.027.06-1.663.365-2.575 1.341-3.036 2.059-3.095-.76-6.528-2.814-9.326-4.491-1.447-.867-2.697-1.616-3.774-2.126-2.703-1.28-9.516-3.519-12.283-4.41l5.024-5.258a.984.984 0 0 0 .004-1.354l-2.984-3.16a.987.987 0 0 0-.712-.31c-.27 0-.526.11-.713.304l-9.156 9.587a.97.97 0 0 0-.417-.054c-5.297.548-13.001 4.287-16.352 7.265-3.216 2.858-9.778 11.692-11.617 15.005-1.33 2.393-.743 3.804-.272 4.431.442.594 1.119.972 1.957 1.134l-1.447 1.542c-.006.007-.01.017-.017.024a.965.965 0 0 0-.124.176c-.005.01-.014.016-.019.026L9.634 68.87a.983.983 0 0 0 1.333 1.316l7.021-3.687a.992.992 0 0 0 .292-.232l2.359-2.766c.13 1.383.465 2.921 1.283 3.723.458.45 1.03.663 1.654.614 1.583-.122 3.154-1.603 4.248-2.905.805 1.783 2.333 4.305 4.362 3.752.075-.021.142-.053.214-.078.648.704 2.008 1.859 3.56 1.279 2.063-.774 2.49-3.326 2.557-5.462 1.368.121 2.505.213 3.182.255.896.056 2.611.355 4.596.705 4.174.73 9.367 1.641 12.739 1.401 3.074-.221 7.251-.996 10.938-1.682 1.697-.315 3.318-.616 4.609-.819a4.49 4.49 0 0 0 .924 2.217c.973 1.229 2.574 1.927 4.748 2.085.699 1.248 2.679 1.928 4.666 2.054 2.624.166 4.337-.657 4.472-2.15.167-1.843.487-24.765.487-26.094-.001-2.892-2.988-3.002-5.879-3.109zM52.376 26.906c.431-.453.836.005.386.444-.279.271-7.408 7.795-7.717 8.038-.308.243-.506.1-.551.057-.047-.046-.074-.215.114-.433.189-.22 7.338-7.652 7.768-8.106zM17.911 53.912l-1.185-1.316c2.684-3.888 6.9-9.307 9.183-11.336 2.682-2.385 8.639-5.407 13.34-6.458l-5.134 5.375c-.185.194-.993-.157-.993-.157a.983.983 0 0 0-1.686 1.013l.326.543s.061 1.004-.104 1.177l-5.123 5.364c-.2.208-1.056.148-1.056.148l-.447-.399a.983.983 0 0 0-1.305 1.471l.465.413s-.077.991-.152 1.103c-1.878 2.808-5.311 7.07-7.247 7.499-.757.169 1.1-3.103 1.1-3.103a.986.986 0 0 0 .018-1.337zm-4.063 3.735c-.395-.468.575-2.802.575-2.802s.86-1.364 1.292-1.042c.432.323.538 1.149-.036 1.832-.574.684-1.436 2.48-1.831 2.012zm-.594 8.629c-.375-.009-.293-.419-.293-.419-.008-.009-.019-.016-.024-.025.215-.422.187-.491.446-1.001.215-.323.686-.372.686-.372s.829.484.753.734c-.075.249-1.194 1.092-1.568 1.083zm3.001-2.817l-.938-.914 2.218-2.362c3.337-1.076 7.647-7.487 8.318-8.509l24.822-25.988c.278-.292.673-.465.896-.231.329.415-.188 1.014-.188 1.014l-26.427 27.83a6.189 6.189 0 0 0-1.635 1.096c-.612.579-1.017 1.234-1.206 1.895l-5.86 6.169zm25.099-16.041c-.939.297-1.969.438-2.926.496-1.208.073-1.426-1.043.206-2.062 1.144-.715 2.345-1.44 3.116-1.841.327-.169.639.15.606.384a34.8 34.8 0 0 0-.211 1.812c-.029.315-.545 1.134-.791 1.211zm.603 2.286c-.004.14-.008.276-.01.412a2.773 2.773 0 0 1-.372.158c-.585.208-1.422.365-2.05.48l-1.139.223c-.753.169-2.235-.746-.813-.905 1.176-.13 2.555-.311 3.704-.591.241-.06.682.086.68.223zm-.095-11.512c-.047-.046-.074-.214.114-.433.189-.219.783-.789 1.213-1.243.43-.452.835.005.385.444-.28.271-.852.933-1.162 1.176-.308.243-.505.1-.55.056zM26.145 63.873c-.915 1.049-1.956 1.948-2.72 2.006-.04.003-.064.006-.126-.057-.358-.351-.573-1.285-.681-2.319-.08-.751.861-1.646 1.324-1.324.462.323 1 .566 1.603.719.277.069.812.731.6.975zm3.536-5.177c-.058.315-3.771 3.572-5.343 1.043-.341-.549-.381-1.2-.381-1.658 0-.281.188-.762.717-1.263.678-.642 1.642-1.065 2.701-1.216.544.224 2.647 1.213 2.306 3.094zm1.988 8.092c-.353.098-1.171-.895-1.883-2.32-.155-.312 3.34.27 3.179.653-.351.833-.806 1.534-1.296 1.667zm3.6 1.258c-.363.136-.919-.264-1.322-.666a7.09 7.09 0 0 0 .818-1.449c.281-.653 1.718-.505 1.64-.024-.196 1.197-.578 1.929-1.136 2.139zm40.497-16.798c-.677 10.719-11.65 12.235-17.118 10.869-5.587-1.396-12.984.033-18.406.453-3.652.282-5.76-.503-7.099-.645-1.085-.115-1.738-1.725-1.529-2.878.255-1.399-.203-2.534-.915-3.404 3.797.136 9.453.232 10.983.081l4.926-.529a.98.98 0 0 0 .856-1.162c-.22-1.152-.554-4.461.523-5.897a.981.981 0 0 0-.197-1.375.98.98 0 0 0-1.375.197c-.911 1.215-1.148 2.993-1.148 4.511 0 .714-.35 1.931-.617 1.959-.226.023-.724-.453-.73-.79a72.7 72.7 0 0 1-.014-1.77.969.969 0 0 0 .006-.661c.045-3.078.317-7.162 1.359-9.244a.983.983 0 1 0-1.757-.879 7.625 7.625 0 0 0-.365.865c-.073.203-.919-.141-.919-.141l6.171-6.461c1.604.513 10.014 3.215 12.952 4.606.989.469 2.26 1.23 3.605 2.036 2.396 1.434 5.236 3.127 8.052 4.146.774.279 2.637 2.184 2.702 3.545.037.774.111 1.647.054 2.568zm6.035 3.175c0 2.911-.155 5.735-.406 7.944-.056.493-.643.309-.627-.042.114-2.59.212-7.139-.548-7.146-.906-.01-.721 4.383-.92 7.146-.018.248-.327.701-1.203.526-.819-.164-1.042-1.075-.97-1.496.261-1.527.473-3.913.578-7.647.106-3.884-.04-6.202-.302-7.594-.117-.612.019-1.862.405-2.092.447-.267 1.068-.469 1.924-.469.108 0 .259.026.457.223 1.069 1.073 1.613 4.53 1.613 10.279.001.038-.001.368-.001.368zm5.787 8.598c-.009.429-.014 1.032-.315 1.02-.108.146-.371-.207-.359-.549.121-3.578.313-10.972-.811-10.878-1.222.101-.826 6.994-1.167 10.822-.032.352-.599.522-.885.465-.584-.117-.751-.72-.683-1.314.341-2.934.399-6.256.399-8.163v-.25c.006-4.461-.238-9.833-2.188-11.785a2.843 2.843 0 0 0-.657-.482c.607-.364 1.568-.708 3.004-.655 3.984.147 3.984.544 3.984 1.146.001 1.48-.171 13.453-.322 20.623z"></path></g><!----></svg>