<svg data-v-423bf9ae="" xmlns="http://www.w3.org/2000/svg" viewBox="0 0 371.62000814204663 60" class="font"><!----><!----><!----><g data-v-423bf9ae="" id="586445e4-62d6-405c-91ef-d1aea19c04c0" fill="black" transform="matrix(4.418261864764637,0,0,4.418261864764637,0.9278275921678585,-18.55669851245775)"><path d="M13.17 5.28L13.17 5.28Q13.83 5.28 14.25 5.24L14.25 5.24L14.25 5.52L14.25 5.52Q13.43 5.92 12.95 7.48L12.95 7.48L10.60 15.15L10.60 15.15Q10.15 15.12 9.86 15.12L9.86 15.12L9.86 15.12Q9.58 15.12 9.13 15.15L9.13 15.15L7.31 9.59L5.33 15.15L5.33 15.15Q4.89 15.12 4.59 15.12L4.59 15.12L4.59 15.12Q4.31 15.12 3.86 15.15L3.86 15.15L0.62 6.41L0.62 6.41Q0.45 5.96 0.22 5.75L0.22 5.75L0.22 5.75Q0 5.53-0.21 5.52L-0.21 5.52L-0.21 5.24L-0.21 5.24Q0.80 5.28 2.27 5.28L2.27 5.28L2.27 5.28Q3.54 5.28 4.13 5.24L4.13 5.24L4.13 5.52L4.13 5.52Q3.75 5.59 3.75 6.08L3.75 6.08L3.75 6.08Q3.75 6.37 3.88 6.69L3.88 6.69L5.91 12.40L7.14 9.07L6.19 6.17L6.19 6.17Q6.08 5.82 5.91 5.68L5.91 5.68L5.91 5.68Q5.74 5.54 5.47 5.52L5.47 5.52L5.47 5.24L5.47 5.24Q6.41 5.28 7.90 5.28L7.90 5.28L7.90 5.28Q9.35 5.28 10.07 5.24L10.07 5.24L10.07 5.52L10.07 5.52Q9.56 5.53 9.34 5.64L9.34 5.64L9.34 5.64Q9.11 5.75 9.11 6.05L9.11 6.05L9.11 6.05Q9.11 6.31 9.25 6.69L9.25 6.69L11.10 12.31L12.18 8.85L12.18 8.85Q12.56 7.60 12.56 6.89L12.56 6.89L12.56 6.89Q12.56 6.19 12.24 5.87L12.24 5.87L12.24 5.87Q11.93 5.54 11.34 5.52L11.34 5.52L11.34 5.24L11.34 5.24Q12.39 5.28 13.17 5.28L13.17 5.28ZM19.54 7.69L19.54 7.69Q20.23 7.69 20.53 8.11L20.53 8.11L20.53 8.11Q20.83 8.53 20.83 9.10L20.83 9.10L20.83 9.10Q20.83 9.73 20.48 10.10L20.48 10.10L20.48 10.10Q20.12 10.47 19.54 10.47L19.54 10.47L19.54 10.47Q18.94 10.47 18.62 10.20L18.62 10.20L18.62 10.20Q18.30 9.93 18.30 9.46L18.30 9.46L18.30 9.46Q18.30 8.64 19.01 8.16L19.01 8.16L19.01 8.16Q18.76 8.16 18.56 8.26L18.56 8.26L18.56 8.26Q18.21 8.41 17.98 8.76L17.98 8.76L17.98 8.76Q17.74 9.10 17.74 9.51L17.74 9.51L17.74 13.71L17.74 13.71Q17.74 14.36 18.01 14.61L18.01 14.61L18.01 14.61Q18.28 14.85 18.94 14.85L18.94 14.85L18.94 15.15L18.94 15.15Q18.76 15.15 18.63 15.13L18.63 15.13L18.63 15.13Q17.16 15.09 16.67 15.09L16.67 15.09L16.67 15.09Q16.24 15.09 14.73 15.13L14.73 15.13L14.73 15.13Q14.62 15.15 14.43 15.15L14.43 15.15L14.43 14.85L14.43 14.85Q14.87 14.85 15.04 14.64L15.04 14.64L15.04 14.64Q15.22 14.42 15.22 13.85L15.22 13.85L15.22 9.41L15.22 9.41Q15.22 8.76 15.04 8.47L15.04 8.47L15.04 8.47Q14.87 8.18 14.43 8.18L14.43 8.18L14.43 7.88L14.43 7.88Q14.88 7.92 15.30 7.92L15.30 7.92L15.30 7.92Q16.76 7.92 17.74 7.73L17.74 7.73L17.74 8.74L17.74 8.74Q18.27 7.69 19.54 7.69L19.54 7.69ZM23.13 4.20L23.13 4.20Q23.86 4.20 24.26 4.51L24.26 4.51L24.26 4.51Q24.65 4.82 24.65 5.40L24.65 5.40L24.65 5.40Q24.65 5.99 24.26 6.30L24.26 6.30L24.26 6.30Q23.86 6.61 23.13 6.61L23.13 6.61L23.13 6.61Q22.39 6.61 21.99 6.30L21.99 6.30L21.99 6.30Q21.60 5.99 21.60 5.40L21.60 5.40L21.60 5.40Q21.60 4.82 21.99 4.51L21.99 4.51L21.99 4.51Q22.39 4.20 23.13 4.20L23.13 4.20ZM24.47 7.73L24.47 13.85L24.47 13.85Q24.47 14.42 24.65 14.64L24.65 14.64L24.65 14.64Q24.82 14.85 25.26 14.85L25.26 14.85L25.26 15.15L25.26 15.15Q23.74 15.09 23.27 15.09L23.27 15.09L23.27 15.09Q22.79 15.09 21.17 15.15L21.17 15.15L21.17 14.85L21.17 14.85Q21.60 14.85 21.78 14.64L21.78 14.64L21.78 14.64Q21.95 14.42 21.95 13.85L21.95 13.85L21.95 9.41L21.95 9.41Q21.95 8.76 21.78 8.47L21.78 8.47L21.78 8.47Q21.60 8.18 21.17 8.18L21.17 8.18L21.17 7.88L21.17 7.88Q21.62 7.92 22.04 7.92L22.04 7.92L22.04 7.92Q23.49 7.92 24.47 7.73L24.47 7.73ZM29.02 5.61L29.02 7.88L30.39 7.88L30.39 8.16L29.02 8.16L29.02 13.97L29.02 13.97Q29.02 14.25 29.12 14.36L29.12 14.36L29.12 14.36Q29.22 14.48 29.44 14.48L29.44 14.48L29.44 14.48Q29.61 14.48 29.82 14.38L29.82 14.38L29.82 14.38Q30.03 14.28 30.20 14.07L30.20 14.07L30.41 14.24L30.41 14.24Q29.76 15.34 28.42 15.34L28.42 15.34L28.42 15.34Q27.45 15.34 26.98 14.87L26.98 14.87L26.98 14.87Q26.68 14.57 26.59 14.14L26.59 14.14L26.59 14.14Q26.50 13.71 26.50 12.92L26.50 12.92L26.50 8.16L25.44 8.16L25.44 7.88L26.50 7.88L26.50 6.23L26.50 6.23Q27.26 6.23 27.87 6.08L27.87 6.08L27.87 6.08Q28.48 5.94 29.02 5.61L29.02 5.61ZM35.06 13.82L35.06 13.82Q36.08 13.82 36.75 12.88L36.75 12.88L36.99 12.96L36.99 12.96Q36.68 13.94 35.95 14.64L35.95 14.64L35.95 14.64Q35.21 15.34 34.06 15.34L34.06 15.34L34.06 15.34Q32.59 15.34 31.71 14.43L31.71 14.43L31.71 14.43Q30.83 13.52 30.83 11.52L30.83 11.52L30.83 11.52Q30.83 9.60 31.82 8.64L31.82 8.64L31.82 8.64Q32.80 7.69 34.43 7.69L34.43 7.69L34.43 7.69Q37.07 7.69 37.07 10.82L37.07 10.82L33.46 10.82L33.46 10.82Q33.45 10.99 33.45 11.33L33.45 11.33L33.45 11.33Q33.45 12.67 33.92 13.24L33.92 13.24L33.92 13.24Q34.38 13.82 35.06 13.82L35.06 13.82ZM34.33 8.01L34.33 8.01Q33.54 8.01 33.40 10.56L33.40 10.56L35.03 10.56L35.03 10.56Q35.04 9.44 34.87 8.72L34.87 8.72L34.87 8.72Q34.69 8.01 34.33 8.01L34.33 8.01ZM48.96 12.80L48.96 12.80Q48.96 14.22 49.06 15.15L49.06 15.15L49.06 15.15Q48.10 15.11 45.85 15.11L45.85 15.11L45.85 15.11Q42.57 15.11 40.95 15.15L40.95 15.15L40.95 14.87L40.95 14.87Q41.40 14.84 41.60 14.76L41.60 14.76L41.60 14.76Q41.80 14.67 41.87 14.43L41.87 14.43L41.87 14.43Q41.94 14.20 41.94 13.66L41.94 13.66L41.94 6.72L41.94 6.72Q41.94 6.19 41.87 5.95L41.87 5.95L41.87 5.95Q41.79 5.71 41.59 5.63L41.59 5.63L41.59 5.63Q41.40 5.54 40.95 5.52L40.95 5.52L40.95 5.24L40.95 5.24Q42.57 5.28 45.85 5.28L45.85 5.28L45.85 5.28Q47.91 5.28 48.78 5.24L48.78 5.24L48.78 5.24Q48.68 6.55 48.68 7.59L48.68 7.59L48.68 7.59Q48.68 8.23 48.72 8.60L48.72 8.60L48.40 8.60L48.40 8.60Q48.15 6.97 47.46 6.26L47.46 6.26L47.46 6.26Q46.77 5.56 45.82 5.56L45.82 5.56L45.64 5.56L45.64 5.56Q45.26 5.56 45.09 5.62L45.09 5.62L45.09 5.62Q44.91 5.68 44.85 5.86L44.85 5.86L44.85 5.86Q44.79 6.03 44.79 6.44L44.79 6.44L44.79 10.02L44.93 10.02L44.93 10.02Q45.65 10.02 46.17 9.45L46.17 9.45L46.17 9.45Q46.69 8.88 46.83 8.18L46.83 8.18L47.15 8.18L47.15 8.18Q47.11 8.76 47.11 9.49L47.11 9.49L47.11 10.16L47.11 10.16Q47.11 10.88 47.19 12.15L47.19 12.15L46.87 12.15L46.87 12.15Q46.75 11.35 46.22 10.83L46.22 10.83L46.22 10.83Q45.70 10.30 44.93 10.30L44.93 10.30L44.79 10.30L44.79 13.94L44.79 13.94Q44.79 14.35 44.85 14.53L44.85 14.53L44.85 14.53Q44.91 14.70 45.09 14.76L45.09 14.76L45.09 14.76Q45.26 14.83 45.64 14.83L45.64 14.83L46.10 14.83L46.10 14.83Q46.91 14.83 47.64 14.04L47.64 14.04L47.64 14.04Q48.37 13.24 48.68 11.51L48.68 11.51L49.00 11.51L49.00 11.51Q48.96 12.01 48.96 12.80L48.96 12.80ZM52.89 7.69L52.89 7.69Q53.44 7.69 53.92 7.80L53.92 7.80L53.92 7.80Q54.40 7.92 54.66 8.06L54.66 8.06L54.66 8.06Q54.81 8.15 54.91 8.15L54.91 8.15L54.91 8.15Q55.20 8.15 55.26 7.70L55.26 7.70L55.54 7.70L55.54 7.70Q55.48 8.43 55.48 10.22L55.48 10.22L55.20 10.22L55.20 10.22Q55.09 9.30 54.68 8.66L54.68 8.66L54.68 8.66Q54.26 8.02 53.48 8.02L53.48 8.02L53.48 8.02Q53.13 8.02 52.89 8.23L52.89 8.23L52.89 8.23Q52.65 8.44 52.65 8.81L52.65 8.81L52.65 8.81Q52.65 9.27 52.96 9.63L52.96 9.63L52.96 9.63Q53.27 9.98 53.93 10.50L53.93 10.50L53.93 10.50Q53.96 10.51 54.33 10.82L54.33 10.82L54.33 10.82Q55.12 11.47 55.48 11.96L55.48 11.96L55.48 11.96Q55.85 12.46 55.85 13.19L55.85 13.19L55.85 13.19Q55.85 13.80 55.47 14.30L55.47 14.30L55.47 14.30Q55.09 14.80 54.44 15.07L54.44 15.07L54.44 15.07Q53.79 15.34 53.02 15.34L53.02 15.34L53.02 15.34Q52.14 15.34 51.58 14.99L51.58 14.99L51.58 14.99Q51.34 14.87 51.18 14.81L51.18 14.81L51.18 14.81Q51.03 14.76 50.88 14.76L50.88 14.76L50.88 14.76Q50.61 14.76 50.48 15.25L50.48 15.25L50.20 15.25L50.20 15.25Q50.26 14.45 50.26 12.45L50.26 12.45L50.54 12.45L50.54 12.45Q50.67 13.59 51.16 14.29L51.16 14.29L51.16 14.29Q51.65 14.99 52.39 14.99L52.39 14.99L52.39 14.99Q52.74 14.99 52.97 14.80L52.97 14.80L52.97 14.80Q53.20 14.60 53.20 14.22L53.20 14.22L53.20 14.22Q53.20 13.83 53.04 13.52L53.04 13.52L53.04 13.52Q52.88 13.22 52.65 12.97L52.65 12.97L52.65 12.97Q52.42 12.73 51.90 12.26L51.90 12.26L51.90 12.26Q51.31 11.72 51.00 11.40L51.00 11.40L51.00 11.40Q50.69 11.07 50.48 10.65L50.48 10.65L50.48 10.65Q50.26 10.22 50.26 9.70L50.26 9.70L50.26 9.70Q50.26 9.10 50.62 8.64L50.62 8.64L50.62 8.64Q50.99 8.18 51.59 7.93L51.59 7.93L51.59 7.93Q52.19 7.69 52.89 7.69L52.89 7.69ZM59.50 7.69L59.50 7.69Q60.05 7.69 60.53 7.80L60.53 7.80L60.53 7.80Q61.01 7.92 61.26 8.06L61.26 8.06L61.26 8.06Q61.42 8.15 61.52 8.15L61.52 8.15L61.52 8.15Q61.81 8.15 61.87 7.70L61.87 7.70L62.15 7.70L62.15 7.70Q62.09 8.43 62.09 10.22L62.09 10.22L61.81 10.22L61.81 10.22Q61.70 9.30 61.29 8.66L61.29 8.66L61.29 8.66Q60.87 8.02 60.09 8.02L60.09 8.02L60.09 8.02Q59.74 8.02 59.50 8.23L59.50 8.23L59.50 8.23Q59.26 8.44 59.26 8.81L59.26 8.81L59.26 8.81Q59.26 9.27 59.57 9.63L59.57 9.63L59.57 9.63Q59.88 9.98 60.54 10.50L60.54 10.50L60.54 10.50Q60.56 10.51 60.94 10.82L60.94 10.82L60.94 10.82Q61.73 11.47 62.09 11.96L62.09 11.96L62.09 11.96Q62.45 12.46 62.45 13.19L62.45 13.19L62.45 13.19Q62.45 13.80 62.08 14.30L62.08 14.30L62.08 14.30Q61.70 14.80 61.05 15.07L61.05 15.07L61.05 15.07Q60.40 15.34 59.63 15.34L59.63 15.34L59.63 15.34Q58.74 15.34 58.18 14.99L58.18 14.99L58.18 14.99Q57.95 14.87 57.79 14.81L57.79 14.81L57.79 14.81Q57.64 14.76 57.48 14.76L57.48 14.76L57.48 14.76Q57.22 14.76 57.09 15.25L57.09 15.25L56.81 15.25L56.81 15.25Q56.87 14.45 56.87 12.45L56.87 12.45L57.15 12.45L57.15 12.45Q57.27 13.59 57.76 14.29L57.76 14.29L57.76 14.29Q58.25 14.99 59.00 14.99L59.00 14.99L59.00 14.99Q59.35 14.99 59.58 14.80L59.58 14.80L59.58 14.80Q59.81 14.60 59.81 14.22L59.81 14.22L59.81 14.22Q59.81 13.83 59.65 13.52L59.65 13.52L59.65 13.52Q59.49 13.22 59.26 12.97L59.26 12.97L59.26 12.97Q59.02 12.73 58.51 12.26L58.51 12.26L58.51 12.26Q57.92 11.72 57.61 11.40L57.61 11.40L57.61 11.40Q57.30 11.07 57.09 10.65L57.09 10.65L57.09 10.65Q56.87 10.22 56.87 9.70L56.87 9.70L56.87 9.70Q56.87 9.10 57.23 8.64L57.23 8.64L57.23 8.64Q57.60 8.18 58.20 7.93L58.20 7.93L58.20 7.93Q58.80 7.69 59.50 7.69L59.50 7.69ZM64.99 15.25L64.99 15.25Q64.09 15.25 63.64 14.76L63.64 14.76L63.64 14.76Q63.18 14.28 63.18 13.55L63.18 13.55L63.18 13.55Q63.18 12.92 63.51 12.51L63.51 12.51L63.51 12.51Q63.84 12.10 64.29 11.87L64.29 11.87L64.29 11.87Q64.74 11.65 65.45 11.41L65.45 11.41L65.45 11.41Q66.21 11.16 66.56 10.95L66.56 10.95L66.56 10.95Q66.91 10.74 66.91 10.36L66.91 10.36L66.91 9.11L66.91 9.11Q66.91 8.67 66.68 8.32L66.68 8.32L66.68 8.32Q66.46 7.97 65.91 7.97L65.91 7.97L65.91 7.97Q65.48 7.97 65.13 8.20L65.13 8.20L65.13 8.20Q65.60 8.37 65.84 8.70L65.84 8.70L65.84 8.70Q66.07 9.03 66.07 9.44L66.07 9.44L66.07 9.44Q66.07 9.98 65.68 10.31L65.68 10.31L65.68 10.31Q65.30 10.64 64.75 10.64L64.75 10.64L64.75 10.64Q64.20 10.64 63.89 10.30L63.89 10.30L63.89 10.30Q63.57 9.95 63.57 9.42L63.57 9.42L63.57 9.42Q63.57 9.00 63.78 8.69L63.78 8.69L63.78 8.69Q63.99 8.39 64.44 8.13L64.44 8.13L64.44 8.13Q65.23 7.69 66.68 7.69L66.68 7.69L66.68 7.69Q67.45 7.69 68.01 7.83L68.01 7.83L68.01 7.83Q68.57 7.98 68.96 8.39L68.96 8.39L68.96 8.39Q69.24 8.68 69.34 9.12L69.34 9.12L69.34 9.12Q69.43 9.56 69.43 10.35L69.43 10.35L69.43 14.10L69.43 14.10Q69.43 14.45 69.48 14.57L69.48 14.57L69.48 14.57Q69.52 14.70 69.65 14.70L69.65 14.70L69.65 14.70Q69.75 14.70 69.86 14.64L69.86 14.64L69.86 14.64Q69.97 14.57 70.07 14.49L70.07 14.49L70.21 14.73L70.21 14.73Q69.61 15.25 68.49 15.25L68.49 15.25L68.49 15.25Q67.65 15.25 67.31 14.96L67.31 14.96L67.31 14.96Q66.98 14.67 66.95 14.18L66.95 14.18L66.95 14.18Q66.29 15.25 64.99 15.25L64.99 15.25ZM66.39 14.13L66.39 14.13Q66.68 14.13 66.91 13.89L66.91 13.89L66.91 10.93L66.91 10.93Q66.78 11.14 66.44 11.48L66.44 11.48L66.44 11.48Q66.07 11.84 65.87 12.19L65.87 12.19L65.87 12.19Q65.67 12.53 65.67 13.12L65.67 13.12L65.67 13.12Q65.67 14.13 66.39 14.13L66.39 14.13ZM76.58 7.94L76.58 7.94Q77.38 7.94 77.66 7.88L77.66 7.88L77.66 8.18L77.66 8.18Q77.36 8.27 77.12 8.58L77.12 8.58L77.12 8.58Q76.87 8.89 76.66 9.53L76.66 9.53L74.91 14.74L74.33 16.44L74.33 16.44Q74.07 17.16 73.71 17.44L73.71 17.44L73.71 17.44Q73.28 17.78 72.41 17.78L72.41 17.78L72.41 17.78Q71.71 17.78 71.11 17.45L71.11 17.45L71.11 17.45Q70.50 17.12 70.50 16.46L70.50 16.46L70.50 16.46Q70.50 15.97 70.88 15.68L70.88 15.68L70.88 15.68Q71.26 15.39 71.88 15.39L71.88 15.39L71.88 15.39Q72.46 15.39 72.80 15.65L72.80 15.65L72.80 15.65Q73.14 15.92 73.14 16.42L73.14 16.42L73.14 16.42Q73.14 16.76 72.91 17.06L72.91 17.06L72.91 17.06Q72.67 17.36 72.23 17.50L72.23 17.50L72.23 17.50Q72.37 17.53 72.70 17.53L72.70 17.53L72.70 17.53Q73.67 17.53 74.03 16.41L74.03 16.41L74.10 16.17L70.84 8.96L70.84 8.96Q70.63 8.48 70.43 8.33L70.43 8.33L70.43 8.33Q70.22 8.18 70.03 8.18L70.03 8.18L70.03 7.88L70.03 7.88Q71.15 7.97 72.31 7.97L72.31 7.97L72.31 7.97Q73.22 7.97 74.34 7.88L74.34 7.88L74.34 8.18L74.34 8.18Q73.93 8.18 73.72 8.23L73.72 8.23L73.72 8.23Q73.50 8.29 73.50 8.48L73.50 8.48L73.50 8.48Q73.50 8.60 73.56 8.71L73.56 8.71L75.28 12.81L75.87 11.02L75.87 11.02Q76.13 10.21 76.13 9.59L76.13 9.59L76.13 9.59Q76.13 8.93 75.85 8.57L75.85 8.57L75.85 8.57Q75.57 8.20 75.11 8.18L75.11 8.18L75.11 7.88L75.11 7.88Q75.63 7.94 76.58 7.94L76.58 7.94ZM80.95 7.69L80.95 7.69Q81.49 7.69 81.98 7.80L81.98 7.80L81.98 7.80Q82.46 7.92 82.71 8.06L82.71 8.06L82.71 8.06Q82.87 8.15 82.96 8.15L82.96 8.15L82.96 8.15Q83.26 8.15 83.31 7.70L83.31 7.70L83.59 7.70L83.59 7.70Q83.54 8.43 83.54 10.22L83.54 10.22L83.26 10.22L83.26 10.22Q83.15 9.30 82.73 8.66L82.73 8.66L82.73 8.66Q82.32 8.02 81.54 8.02L81.54 8.02L81.54 8.02Q81.19 8.02 80.95 8.23L80.95 8.23L80.95 8.23Q80.71 8.44 80.71 8.81L80.71 8.81L80.71 8.81Q80.71 9.27 81.02 9.63L81.02 9.63L81.02 9.63Q81.33 9.98 81.98 10.50L81.98 10.50L81.98 10.50Q82.01 10.51 82.39 10.82L82.39 10.82L82.39 10.82Q83.17 11.47 83.54 11.96L83.54 11.96L83.54 11.96Q83.90 12.46 83.90 13.19L83.90 13.19L83.90 13.19Q83.90 13.80 83.52 14.30L83.52 14.30L83.52 14.30Q83.15 14.80 82.50 15.07L82.50 15.07L82.50 15.07Q81.84 15.34 81.07 15.34L81.07 15.34L81.07 15.34Q80.19 15.34 79.63 14.99L79.63 14.99L79.63 14.99Q79.39 14.87 79.24 14.81L79.24 14.81L79.24 14.81Q79.09 14.76 78.93 14.76L78.93 14.76L78.93 14.76Q78.67 14.76 78.54 15.25L78.54 15.25L78.26 15.25L78.26 15.25Q78.32 14.45 78.32 12.45L78.32 12.45L78.60 12.45L78.60 12.45Q78.72 13.59 79.21 14.29L79.21 14.29L79.21 14.29Q79.70 14.99 80.44 14.99L80.44 14.99L80.44 14.99Q80.79 14.99 81.03 14.80L81.03 14.80L81.03 14.80Q81.26 14.60 81.26 14.22L81.26 14.22L81.26 14.22Q81.26 13.83 81.10 13.52L81.10 13.52L81.10 13.52Q80.93 13.22 80.70 12.97L80.70 12.97L80.70 12.97Q80.47 12.73 79.95 12.26L79.95 12.26L79.95 12.26Q79.37 11.72 79.06 11.40L79.06 11.40L79.06 11.40Q78.75 11.07 78.53 10.65L78.53 10.65L78.53 10.65Q78.32 10.22 78.32 9.70L78.32 9.70L78.32 9.70Q78.32 9.10 78.68 8.64L78.68 8.64L78.68 8.64Q79.04 8.18 79.65 7.93L79.65 7.93L79.65 7.93Q80.25 7.69 80.95 7.69L80.95 7.69Z"></path></g><!----><!----></svg>